#tb 0: 1/25
#media_type 0: video
#codec_id 0: rawvideo
#dimensions 0: 352x288
#sar 0: 0/1
0,          0,          0,        1,   152064, 0x5cb689ef
0,          1,          1,        1,   152064, 0x7e5d6551
0,          2,          2,        1,   152064, 0x0151f64a
0,          3,          3,        1,   152064, 0x2e3680b0
0,          4,          4,        1,   152064, 0x907cb652
